<svg xmlns="http://www.w3.org/2000/svg"  viewBox="0 0 64 64" width="512px" height="512px"><path d="M 8 6 C 6.3550302 6 5 7.3550302 5 9 L 5 55 C 5 56.64497 6.3550302 58 8 58 L 54 58 C 55.64497 58 57 56.64497 57 55 L 57 9 C 57 7.3550302 55.64497 6 54 6 L 8 6 z M 8 8 L 54 8 C 54.56503 8 55 8.4349698 55 9 L 55 55 C 55 55.56503 54.56503 56 54 56 L 8 56 C 7.4349698 56 7 55.56503 7 55 L 7 9 C 7 8.4349698 7.4349698 8 8 8 z M 21.984375 9.9863281 A 1.0001 1.0001 0 0 0 21 11 L 21 22 L 10 22 A 1.0001 1.0001 0 1 0 10 24 L 21 24 L 21 39 L 10 39 L 9.1992188 39.402344 L 9.0410156 40.283203 L 9.6523438 40.9375 L 10 41 L 21 41 L 21 53 A 1.0001 1.0001 0 1 0 23 53 L 23 24 L 39 24 L 39 29 L 39.402344 29.800781 L 40.283203 29.958984 L 40.9375 29.347656 L 41 29 L 41 24 L 52 24 A 1.0001 1.0001 0 1 0 52 22 L 41 22 L 41 11 L 40.597656 10.199219 L 39.716797 10.041016 L 39.0625 10.652344 L 39 11 L 39 22 L 23 22 L 23 11 A 1.0001 1.0001 0 0 0 21.984375 9.9863281 z M 13.871094 10 A 1.0001 1.0001 0 0 0 13.220703 10.265625 L 11.673828 11.697266 A 1.0001 1.0001 0 0 0 12.900391 13.271484 L 12.900391 18 L 12.703125 18 A 1.0001 1.0001 0 1 0 12.703125 20 L 13.732422 20 A 1.0001 1.0001 0 0 0 14.058594 20 L 15.126953 20 A 1.0001 1.0001 0 1 0 15.126953 18 L 14.900391 18 L 14.900391 11 A 1.0001 1.0001 0 0 0 13.871094 10 z M 46.035156 10 A 1.0001 1.0001 0 0 0 45.042969 10.875 L 44.644531 14.076172 A 1.0001 1.0001 0 0 0 45.636719 15.199219 L 48.035156 15.199219 C 48.598093 15.199219 49.035156 15.636282 49.035156 16.199219 L 49.035156 17 C 49.035156 17.562937 48.598093 18 48.035156 18 L 46.835938 18 C 46.491906 18 46.236328 17.744421 46.236328 17.400391 A 1.0001 1.0001 0 1 0 44.236328 17.400391 C 44.236328 18.82436 45.411967 20 46.835938 20 L 48.035156 20 C 49.680219 20 51.035156 18.645063 51.035156 17 L 51.035156 16.199219 C 51.035156 14.554156 49.680219 13.199219 48.035156 13.199219 L 46.769531 13.199219 L 46.917969 12 L 50.035156 12 A 1.0001 1.0001 0 1 0 50.035156 10 L 46.035156 10 z M 30.861328 26 C 29.36758 26 28.134766 27.232814 28.134766 28.726562 L 28.134766 28.990234 A 1.0001 1.0001 0 1 0 30.134766 28.990234 L 30.134766 28.726562 C 30.134766 28.314311 30.449077 28 30.861328 28 L 31.365234 28 C 31.777486 28 32.091797 28.314311 32.091797 28.726562 L 32.091797 29.724609 C 32.091797 29.922432 32.009477 30.112105 31.865234 30.25 L 28.925781 33.058594 A 1.0001 1.0001 0 0 0 28.855469 33.132812 C 28.321313 33.759753 28.099609 34.473333 28.099609 35 A 1.0001 1.0001 0 0 0 29.099609 36 L 33.109375 36 A 1.0001 1.0001 0 1 0 33.109375 34 L 30.833984 34 L 33.248047 31.695312 C 33.785807 31.181209 34.091797 30.468787 34.091797 29.724609 L 34.091797 28.726562 C 34.091797 27.232814 32.858983 26 31.365234 26 L 30.861328 26 z M 39.716797 32.041016 L 39.0625 32.652344 L 39 33 L 39 36 L 39.402344 36.800781 L 40.283203 36.958984 L 40.9375 36.347656 L 41 36 L 41 33 L 40.597656 32.199219 L 39.716797 32.041016 z M 26 39 L 25.199219 39.402344 L 25.041016 40.283203 L 25.652344 40.9375 L 26 41 L 29 41 L 29.800781 40.597656 L 29.958984 39.716797 L 29.347656 39.0625 L 29 39 L 26 39 z M 33 39 L 32.199219 39.402344 L 32.041016 40.283203 L 32.652344 40.9375 L 33 41 L 39 41 L 39 53 L 39.402344 53.800781 L 40.283203 53.958984 L 40.9375 53.347656 L 41 53 L 41 41 L 52 41 L 52.800781 40.597656 L 52.958984 39.716797 L 52.347656 39.0625 L 52 39 L 33 39 z M 12 49 C 11.448 49 11 49.448 11 50 L 11 52 C 11 52.552 11.448 53 12 53 C 12.552 53 13 52.552 13 52 L 13 50 C 13 49.448 12.552 49 12 49 z M 17 49 C 16.448 49 16 49.448 16 50 L 16 52 C 16 52.552 16.448 53 17 53 C 17.552 53 18 52.552 18 52 L 18 50 C 18 49.448 17.552 49 17 49 z M 26 49 C 25.448 49 25 49.448 25 50 L 25 52 C 25 52.552 25.448 53 26 53 C 26.552 53 27 52.552 27 52 L 27 50 C 27 49.448 26.552 49 26 49 z M 31 49 C 30.448 49 30 49.448 30 50 L 30 52 C 30 52.552 30.448 53 31 53 C 31.552 53 32 52.552 32 52 L 32 50 C 32 49.448 31.552 49 31 49 z M 36 49 C 35.448 49 35 49.448 35 50 L 35 52 C 35 52.552 35.448 53 36 53 C 36.552 53 37 52.552 37 52 L 37 50 C 37 49.448 36.552 49 36 49 z M 45 49 C 44.448 49 44 49.448 44 50 L 44 52 C 44 52.552 44.448 53 45 53 C 45.552 53 46 52.552 46 52 L 46 50 C 46 49.448 45.552 49 45 49 z M 50 49 C 49.448 49 49 49.448 49 50 L 49 52 C 49 52.552 49.448 53 50 53 C 50.552 53 51 52.552 51 52 L 51 50 C 51 49.448 50.552 49 50 49 z"/></svg>